:SAMPLES-PER-SECOND 30
:FULLY-SPECIFIED
:DEGREES
61
root  83.4055 39.358 1.1835 -134.748 -86.4873 135.722
RightUpLeg  -2.46927 -7.44448 -5.31575
RightLeg  6.95282 13.8799 -0.343338
RightFoot  -5.60734 -0.0268596 0.400148
RightToes  -6.40286e-010 0 -3.6325e-017
Spine  7.77724 0.727116 2.84048
Spine1  -14.639 0.87877 -0.973826
HEad  4.2871 -5.25846 -4.42093
LeftShoulder1  0.228252 2.64224 -19.9776
LeftArm  -13.1328 17.9016 -14.3049
LeftForeArm  14.0736 -6.71855 -1.54753
LeftHand  -0.0170391 6.66156 1.60154
RightShoulder  0.0267531 -3.37871 19.8915
RightArm  0.785953 -12.0374 10.66
RightForeArm  6.4623 4.00594 -0.628713
RightHand  0.086033 5.50287 0.605808
LeftUpLeg  0.277383 6.50318 2.90058
LeftLeg  -0.00836773 2.90269 0.0848734
LeftFoot  -0.890518 0.157063 -1.60333
LeftToes  1.32783e-010 1.73515e-011 1.59258e-011
62
root  83.3838 39.3631 1.18292 -134.321 -86.4613 135.265
RightUpLeg  -2.39666 -7.4078 -5.33571
RightLeg  6.94137 13.8445 -0.412512
RightFoot  -5.60415 -0.0238464 0.354082
RightToes  -6.40286e-010 0 -3.6325e-017
Spine  8.1339 0.811645 2.76276
Spine1  -15.5843 0.950813 -0.903372
HEad  5.2004 -5.25099 -4.74338
LeftShoulder1  0.301872 2.32423 -19.0228
LeftArm  -13.1556 17.3017 -11.9609
LeftForeArm  13.5956 -7.64816 -1.5966
LeftHand  -0.00814373 6.88107 2.10163
RightShoulder  0.101234 -3.084 19.0906
RightArm  0.805678 -11.8651 7.4333
RightForeArm  5.31922 5.28054 -0.659441
RightHand  -0.00731601 4.13718 -0.419212
LeftUpLeg  0.367771 6.47949 2.85539
LeftLeg  -0.0763931 2.8588 0.101956
LeftFoot  -0.762321 0.148158 -1.47478
LeftToes  1.32783e-010 1.73515e-011 1.59258e-011
63
root  83.3789 39.3616 1.18449 -132.459 -86.5501 133.404
RightUpLeg  -2.36392 -7.3317 -5.3219
RightLeg  6.93272 13.64 -0.513782
RightFoot  -5.67652 -0.0362647 0.545469
RightToes  -6.40286e-010 0 -3.6325e-017
Spine  8.84228 0.715506 2.84921
Spine1  -17.1398 0.8624 -1.03775
HEad  6.24283 -5.33897 -5.09096
LeftShoulder1  0.392693 1.90995 -18.0076
LeftArm  -13.6312 16.7452 -9.81739
LeftForeArm  13.5261 -8.00745 -1.32292
LeftHand  -0.00718891 6.42638 2.53568
RightShoulder  0.170628 -2.78889 18.0065
RightArm  0.752662 -11.3858 5.08643
RightForeArm  5.07314 6.37196 -0.652501
RightHand  -0.0763035 3.24453 -1.4364
LeftUpLeg  0.367257 6.4834 2.84543
LeftLeg  -0.108118 2.71572 0.0741159
LeftFoot  -0.751203 0.144218 -1.4254
LeftToes  1.32783e-010 1.73515e-011 1.59258e-011
64
root  83.3853 39.3587 1.19405 -130.822 -86.6292 131.769
RightUpLeg  -2.39171 -7.37537 -5.35402
RightLeg  6.9895 13.5925 -0.48809
RightFoot  -5.63653 -0.0329362 0.490213
RightToes  -6.40286e-010 0 -3.6325e-017
Spine  9.28013 0.750705 2.75145
Spine1  -18.1443 0.883528 -0.831555
HEad  6.85438 -5.26125 -5.18535
LeftShoulder1  0.477927 1.49676 -17.0909
LeftArm  -14.1513 16.1632 -8.43002
LeftForeArm  14.2572 -8.81321 -1.11651
LeftHand  -0.0378783 5.62773 0.709728
RightShoulder  0.237785 -2.48396 17.2247
RightArm  0.158953 -10.7777 2.53443
RightForeArm  3.23541 7.03176 -0.808912
RightHand  0.072515 6.66826 0.401698
LeftUpLeg  0.336015 6.442 2.81024
LeftLeg  -0.107744 2.69775 0.0885476
LeftFoot  -0.84806 0.15552 -1.61397
LeftToes  1.32783e-010 1.73515e-011 1.59258e-011
65
root  83.3911 39.3616 1.20156 -130.943 -86.6293 131.816
RightUpLeg  -2.30574 -7.37396 -5.36261
RightLeg  6.95386 13.5866 -0.504987
RightFoot  -5.58367 -0.0252305 0.364665
RightToes  -6.40286e-010 0 -3.6325e-017
Spine  9.55893 0.752835 2.7799
Spine1  -18.71 0.884553 -0.75648
HEad  7.27571 -4.87183 -5.03767
LeftShoulder1  0.552464 1.15505 -16.7974
LeftArm  -13.8949 15.5021 -6.53762
LeftForeArm  15.2785 -9.82704 -1.29811
LeftHand  -0.0748944 6.18748 -5.16895
RightShoulder  0.314535 -2.09208 15.8153
RightArm  -0.520222 -10.5875 1.39081
RightForeArm  2.31308 8.55648 -0.863653
RightHand  0.0352338 5.94912 0.0335996
LeftUpLeg  0.367199 6.46275 2.81664
LeftLeg  -0.024771 2.64843 0.0852086
LeftFoot  -0.831071 0.15045 -1.54809
LeftToes  1.32783e-010 1.73515e-011 1.59258e-011
66
root  83.3973 39.3591 1.20442 -131.714 -86.5851 132.534
RightUpLeg  -2.23351 -7.38122 -5.37623
RightLeg  6.87232 13.6065 -0.521083
RightFoot  -5.59767 -0.0238266 0.33446
RightToes  -6.40286e-010 0 -3.6325e-017
Spine  9.36292 0.854878 2.63308
Spine1  -18.5201 0.97014 -0.582879
HEad  7.49811 -4.7272 -5.07831
LeftShoulder1  0.589443 0.930469 -16.1304
LeftArm  -14.7352 14.5925 -6.12539
LeftForeArm  16.4139 -10.5708 -1.09131
LeftHand  -0.11339 6.49725 -7.47501
RightShoulder  0.355963 -1.87525 15.306
RightArm  -0.670344 -10.0242 -0.11961
RightForeArm  1.29068 10.327 -0.59806
RightHand  0.0186555 5.64126 -0.150971
LeftUpLeg  0.378296 6.47914 2.82819
LeftLeg  0.0820608 2.68375 0.0784286
LeftFoot  -0.877897 0.153111 -1.60149
LeftToes  1.32783e-010 1.73515e-011 1.59258e-011
67
root  83.4169 39.3669 1.21568 -131.073 -86.5649 131.948
RightUpLeg  -2.29976 -7.3998 -5.44135
RightLeg  6.84085 13.6782 -0.516452
RightFoot  -5.60545 -0.0426495 0.615614
RightToes  -6.40286e-010 0 -3.6325e-017
Spine  9.44744 0.812608 2.58641
Spine1  -18.8792 0.925652 -0.642255
HEad  7.82752 -4.49384 -4.83655
LeftShoulder1  0.606097 0.797225 -15.568
LeftArm  -15.9858 14.115 -5.70589
LeftForeArm  17.7173 -11.4002 -0.71035
LeftHand  -0.0261603 5.2072 -6.32275
RightShoulder  0.383437 -1.73275 15.0616
RightArm  -1.26442 -9.26122 -1.07118
RightForeArm  1.12098 11.7573 -0.330647
RightHand  -0.0817127 5.03316 -1.23334
LeftUpLeg  0.213825 6.41442 2.75667
LeftLeg  0.245246 2.59555 0.108404
LeftFoot  -0.785117 0.147055 -1.51753
LeftToes  1.32783e-010 1.73515e-011 1.59258e-011
68
root  83.4287 39.3757 1.21979 -133.295 -86.4839 134.148
RightUpLeg  -2.383 -7.36418 -5.39451
RightLeg  6.98501 13.8383 -0.486618
RightFoot  -5.46026 -0.0330122 0.45227
RightToes  -6.40286e-010 0 -3.6325e-017
Spine  9.41076 0.842859 2.43384
Spine1  -18.8179 0.942586 -0.343391
HEad  8.2832 -4.40425 -5.07282
LeftShoulder1  0.596192 0.825703 -15.4284
LeftArm  -16.2777 13.6309 -5.36704
LeftForeArm  14.7098 -11.8753 -0.816965
LeftHand  -0.0374869 5.58627 -3.08498
RightShoulder  0.411403 -1.55997 14.4909
RightArm  -2.19619 -8.48377 -1.18188
RightForeArm  2.79967 12.757 -0.197765
RightHand  -0.0238509 6.68224 -0.567376
LeftUpLeg  0.312551 6.49125 2.81833
LeftLeg  0.118479 2.74171 0.0492161
LeftFoot  -0.715479 0.151002 -1.58625
LeftToes  1.32783e-010 1.73515e-011 1.59258e-011
69
root  83.451 39.3662 1.22874 -133.917 -86.5162 134.751
RightUpLeg  -2.40553 -7.39324 -5.35979
RightLeg  6.99985 13.8379 -0.471819
RightFoot  -5.49566 -0.0352136 0.469815
RightToes  -6.40286e-010 0 -3.6325e-017
Spine  9.60064 0.799394 2.29551
Spine1  -19.0953 0.890979 -0.0451742
HEad  8.63753 -4.28928 -5.1862
LeftShoulder1  0.614664 0.73121 -15.3285
LeftArm  -16.5522 13.3512 -5.27523
LeftForeArm  14.2336 -12.3155 -0.933091
LeftHand  -0.0350847 6.3881 -0.00231762
RightShoulder  0.443912 -1.39409 14.3299
RightArm  -2.54096 -7.76779 -1.29741
RightForeArm  3.10836 13.4188 0.0662897
RightHand  -0.0281419 6.3756 -0.617964
LeftUpLeg  0.345959 6.46757 2.81785
LeftLeg  -0.0100549 2.8711 0.077209
LeftFoot  -0.802354 0.146189 -1.51503
LeftToes  1.32783e-010 1.73515e-011 1.59258e-011
70
root  83.4697 39.3652 1.22892 -135.959 -86.3943 136.744
RightUpLeg  -2.34697 -7.338 -5.31631
RightLeg  6.80708 13.8686 -0.54833
RightFoot  -5.37353 -0.0204406 0.220861
RightToes  -6.40286e-010 0 -3.6325e-017
Spine  9.7067 0.826688 2.25141
Spine1  -19.0985 0.917317 -0.11531
HEad  8.49725 -4.13332 -4.84124
LeftShoulder1  0.633932 0.639403 -15.2862
LeftArm  -16.5311 13.1723 -5.38499
LeftForeArm  13.3027 -12.6615 -1.13844
LeftHand  -0.000250208 6.96751 2.61587
RightShoulder  0.456539 -1.36182 14.6336
RightArm  -2.74956 -6.94546 -1.19267
RightForeArm  3.50739 13.64 0.206763
RightHand  -0.0716881 5.98384 -1.0685
LeftUpLeg  0.389219 6.48598 2.82292
LeftLeg  0.0026409 2.97702 0.0882495
LeftFoot  -0.781696 0.142403 -1.45503
LeftToes  1.32783e-010 1.73515e-011 1.59258e-011
